<svg width="139" height="143" viewBox="0 0 139 143" fill="none" xmlns="http://www.w3.org/2000/svg">
<g clip-path="url(#clip0_628_5012)">
<path d="M30.2095 131.957C29.4003 131.294 26.9162 128.133 26.2997 127.111C16.0196 110.072 36.6361 97.6974 51.9613 99.6077C53.1766 99.7593 54.552 100.339 55.5628 100.46C56.1913 100.535 56.0519 100.223 55.9778 99.7444C55.7614 98.3034 54.0689 94.3103 53.3811 92.8367C53.1321 92.3049 52.394 90.5371 51.9464 90.3945C51.238 90.1687 46.3262 92.2811 45.0338 92.596C19.9176 98.7194 4.5687 71.2074 12.4951 49.584C15.8655 40.3856 20.2822 40.7838 29.4685 41.3483C40.8542 42.0465 51.155 46.6546 57.3384 56.4918C55.6903 45.9148 56.046 36.6391 61.2868 27.1823C72.7081 6.56015 95.9331 -1.8628 118.69 0.341729C124.408 0.897316 130.013 2.34422 132.533 8.15561C148.756 45.588 122.359 90.4806 78.7582 79.8799C76.5083 79.3332 74.7564 77.711 72.6192 79.2441C68.49 82.2003 66.2757 93.8825 65.7836 98.8382C65.7391 99.2839 65.5998 99.6939 66.2253 99.578C75.1536 95.6325 86.6905 92.0761 96.3777 94.9046C113.286 99.8425 108.961 120.759 98.9803 130.474C98.0169 131.413 96.8283 132.381 95.7196 133.148C94.611 133.915 93.2386 134.732 92.0647 135.278C89.6903 136.383 87.0966 136.779 84.7519 137.902C80.9991 137.997 77.2731 138.208 73.4877 138.199C69.2785 138.187 64.8736 137.979 60.605 137.89C52.2873 137.712 43.7592 138.653 35.8416 135.525C35.3496 135.329 34.7715 134.176 33.4702 134.336C33.3902 133.609 32.1037 133.062 31.4901 132.604C31.0751 132.295 30.3577 132.081 30.2095 131.96V131.957ZM58.9628 52.0352C58.8472 54.4655 60.0448 60.3393 60.9845 62.6359C61.2779 63.3549 61.7018 64.2314 62.2235 64.8107C62.766 66.121 63.6612 67.1608 64.2985 68.376C65.1996 70.0962 66.9011 72.4315 66.9663 74.3181C66.9693 74.4161 66.9723 74.5172 66.9663 74.6152C66.5098 74.9034 66.4565 75.4144 66.2935 75.872C64.1295 81.8973 61.9064 88.1008 61.3343 94.5213C60.9845 94.9254 60.6851 95.0828 60.1485 95.1155C60.11 95.0115 58.9925 94.1707 58.6071 93.5408C58.0084 92.5574 55.1745 86.9867 55.1093 86.2023C54.97 84.5504 56.9175 82.3845 57.6408 80.8663C59.037 77.9458 59.6921 74.8351 60.1485 71.6441C60.528 68.9702 61.1653 67.6897 59.9025 65.2059C57.0035 59.5044 52.9721 53.075 47.6987 49.3612C44.1682 46.8744 41.4115 45.9445 37.3238 44.9046C32.2401 43.6092 26.8599 42.501 21.4976 43.1547C17.8071 43.6033 16.7133 45.4543 15.3379 48.5679C12.8004 54.3021 12.7115 60.4314 13.3133 66.5933C13.1591 74.6419 20.2674 84.7911 27.2453 88.2821C28.7215 89.0189 29.1958 89.2388 30.8024 89.7676C30.8913 89.7973 31.0099 89.7379 31.0988 89.7676C31.1729 89.7914 31.3567 89.9696 31.6917 90.0647C37.4364 91.678 43.5517 92.0197 48.9851 89.1259C49.4387 88.8852 49.7381 88.291 50.076 88.1365C50.574 87.9077 51.5018 88.0355 51.5552 87.985C51.7182 87.8334 50.9949 84.3038 50.8141 83.8225C49.5365 80.4206 45.6326 76.9386 42.9558 74.6152C41.6753 73.504 40.0894 72.5533 39.2476 71.0559C42.2859 72.2116 44.5388 73.6853 46.9576 75.8155C47.2036 76.0324 47.6305 76.0383 47.6987 76.1007C50.2568 78.4895 51.9672 81.0981 53.0343 84.4197C53.891 87.0818 54.8218 89.6517 55.7111 92.2841C56.7189 95.273 57.0657 99.1799 59.2593 101.355C59.5764 101.667 59.9944 102.436 60.3353 102.505C60.4954 102.537 63.2818 101.45 63.3707 101.313C63.5663 101.01 63.3411 99.4503 63.4152 98.8323C64.3489 90.8312 66.8092 84.3484 68.9583 76.7603C70.6094 70.9341 70.6509 68.272 73.7841 62.731C78.3609 54.6408 91.3533 39.6429 100.94 38.401C101.115 38.3772 102.958 38.2197 102.238 38.9566C102.117 39.0814 99.6414 40.0677 99.0752 40.3946C98.008 41.0096 97.4597 41.378 96.606 42.2277C93.7869 43.6568 90.8168 46.0336 88.4454 48.1609C80.7175 55.0954 72.7526 65.2653 71.6825 75.9195C81.423 78.335 90.7367 80.0819 100.753 78.1775C106.904 77.0069 112.737 74.4191 117.353 70.1556C117.934 70.1616 118.177 69.7546 118.544 69.4188C124.517 63.9135 129.079 56.8275 131.581 49.0611C134.646 39.5478 135.361 29.1461 133.57 19.2882C133.2 17.2441 132.687 14.888 131.581 13.1113C131.519 10.5027 129.992 8.60721 128.321 6.87211C125.25 3.68714 122.683 3.5267 118.387 3.01271C109.127 1.90451 93.2237 3.82975 84.8438 8.01003C77.6021 11.6199 68.6352 19.2525 64.5386 26.282C59.9499 34.1524 57.6734 42.8784 58.9569 52.0322L58.9628 52.0352ZM62.514 69.8645L61.9241 70.013C62.1139 75.8779 60.3649 81.4189 56.9294 86.1073C56.873 86.7104 60.0181 89.1853 59.8551 90.3618L62.2176 81.2971L65.1344 74.122L62.514 69.8675V69.8645ZM49.1808 115.022C48.7035 115.604 48.3212 116.397 47.4022 116.207C47.7342 113.836 48.6146 111.911 50.3665 110.268C51.1076 109.573 52.643 108.28 53.4879 107.603C54.3327 106.925 58.4797 104.314 58.6635 103.877C58.9273 103.253 58.2277 103.476 57.9194 103.443C56.0786 103.25 55.0352 102.941 53.3278 102.543C46.3321 100.915 40.7979 101.756 34.564 105.574C25.6594 111.023 22.9382 118.183 29.6137 126.906C31.3122 129.125 32.2282 130.067 34.653 131.66C38.2427 134.019 42.3156 135.243 46.6463 135.534C48.834 135.682 55.4532 135.884 57.3236 135.516C58.4975 135.284 58.3907 133.611 59.6861 133.724C60.8748 133.828 60.5398 135.049 60.8807 135.528C61.272 136.077 64.426 135.768 65.3301 135.822C78.5003 136.58 90.6093 137.456 99.5613 126.154C103.96 120.604 107.031 111.474 104.313 104.623C102.54 100.154 99.1463 98.0034 94.531 96.8981C93.4727 96.6456 92.5835 96.702 91.5667 96.601C76.9737 95.1601 58.3611 103.764 49.1778 115.022H49.1808Z" fill="#2B4C50"/>
<path d="M122.101 132.254C122.173 132.364 122.288 132.884 122.398 133.145C120.121 130.935 119.597 134.319 118.097 134.925C117.477 135.174 117.694 134.372 117.655 134.334C118.254 133.606 118.746 132.937 118.841 131.957C120.19 131.722 120.533 129.856 122.101 132.254Z" fill="#ACDC6F"/>
<path d="M117.065 131.957C117.237 132.471 117.629 133.439 117.065 133.739C116.01 132.489 115.396 131.107 113.805 132.254C113.891 131.951 113.923 131.633 114.101 131.363C115.106 129.824 116.514 130.32 117.065 131.957Z" fill="#C3EA72"/>
<path d="M118.843 131.957C118.748 132.937 118.256 133.606 117.657 134.334C117.619 134.295 117.284 134.387 117.156 134.244C116.993 134.06 117.1 133.781 117.065 133.739C117.628 133.439 117.236 132.471 117.065 131.957C117.625 131.894 118.315 132.049 118.843 131.957Z" fill="#EEF6C2"/>
<path d="M131.293 14.5998C131.919 26.6385 133.759 35.7953 130.107 47.8756C129.998 48.2351 129.633 48.7075 129.515 49.064C123.88 54.5219 117.966 59.9351 110.855 63.4885C107.997 64.9176 97.6873 69.3504 94.978 69.5614C92.4228 69.7604 90.33 69.5138 92.4702 66.7537C95.3811 63.0013 100.835 59.1151 104.327 55.4637C107.576 52.0648 110.606 48.3005 113.508 44.6134L92.4643 50.5525C91.9129 49.9494 94.4592 46.711 94.978 46.093C96.0481 44.8273 97.877 43.0476 99.1368 41.9424C101.307 40.0409 104.099 38.8495 105.504 35.9973C102.629 35.2991 99.2939 36.6034 96.5372 37.5542C91.9782 39.1288 88.0327 41.4017 84.0073 44.0132L82.7445 41.7315C82.8334 41.2828 82.2139 41.1996 82.0864 41.3452C81.9975 41.4433 82.3947 42.3078 82.3947 42.6881C82.3917 44.0578 79.3178 47.635 78.0787 48.1727C77.6045 48.3777 77.6815 48.0093 77.5778 47.8043C77.0116 46.6842 76.7063 45.0085 76.1875 43.8439C76.0304 43.4903 76.3269 43.3091 75.568 43.425C74.8536 50.4901 72.0583 56.3194 68.4004 62.2407C67.8995 63.0518 66.9835 63.8569 66.4292 64.7215C65.6852 65.8832 65.365 67.3955 64.3009 68.3819C63.6636 67.1667 62.7684 66.1268 62.2259 64.8166C60.726 61.2008 60.3703 55.122 60.4473 51.1497C62.4601 51.4676 63.4383 49.5275 64.7544 48.4847C67.5942 46.2356 70.7096 45.0977 70.2294 40.8996C69.8944 37.9731 67.111 37.9196 66.7286 36.6866C66.5389 36.0716 66.4114 34.2147 67.2651 33.9176C67.5882 34.2622 68.5753 34.7703 69.0496 34.9515C76.235 37.6997 88.3973 31.1694 95.2714 28.5637C104.372 25.1143 109.117 23.6823 119.003 24.122C122.326 24.2706 124.425 18.6523 124.739 15.91C124.87 14.7602 124.546 13.1083 124.831 12.1397C125.065 11.3435 126.571 10.1372 126.844 8.06641C129.295 9.14193 130.229 12.3655 131.29 14.6027L131.293 14.5998ZM103.432 62.1337C106.023 62.9121 110.063 61.082 111.563 58.8507C112.102 58.0485 112.944 56.2837 111.522 55.9391C110.603 55.7133 107.123 57.8821 106.254 58.5803C105.688 59.0349 103.005 61.5039 103.432 62.1337Z" fill="#9ED46A"/>
<path d="M94.5382 96.898C99.1536 98.0032 102.548 100.154 104.32 104.623C104.19 105.223 103.547 104.302 103.44 104.168C103.007 103.624 100.633 100.044 99.8769 100.763C99.6575 100.971 100.947 102.977 101.042 103.604C102.207 111.1 95.7951 118.417 90.0681 122.277C85.93 125.067 81.1961 127.515 76.4563 128.982C78.1281 121.79 71.6808 126.534 74.3872 128.828C74.9059 129.268 75.7419 129.027 75.8604 129.574C70.504 130.905 65.0231 132.569 59.4088 131.956C56.7232 131.665 53.3173 129.443 50.3797 128.825C44.8513 127.666 39.5305 129.072 34.6602 131.656C32.2354 130.064 31.3195 129.122 29.621 126.903C28.5331 123.64 28.7139 120.194 28.7347 116.804C29.8107 116.935 29.7425 117.886 30.946 118.013C31.6189 118.085 35.0989 117.407 35.2145 116.929C35.3598 116.317 34.592 116.314 35.5495 115.021C36.3261 116.052 34.9151 118.004 36.1394 118.738C38.407 120.096 38.911 116.596 38.5137 115.021C39.7736 113.292 45.0559 109.697 45.6991 108.114C46.1764 106.943 46.1467 105.752 45.1863 104.917C44.6201 104.424 43.6686 104.56 43.8464 103.734C44.1547 103.494 47.3383 103.529 47.9964 103.437C48.4351 104.629 50.3026 105.82 50.5931 106.928C50.9043 108.108 50.2581 109.115 50.3678 110.271C48.6159 111.917 47.7356 113.839 47.4036 116.21C48.3225 116.4 48.7049 115.607 49.1821 115.024C50.9429 117.484 53.0594 115.818 54.8142 114.43C55.247 115.265 54.7223 116.091 54.8824 117.178C55.0691 118.45 56.4208 120.975 57.4969 121.694C59.8949 123.293 65.7731 121.917 68.515 121.18C74.6303 119.532 80.6566 116.465 85.3461 112.35C87.3618 116.546 91.2716 109.81 87.1246 110.568C88.1473 108.129 90.1867 106.26 91.1204 103.728C91.9 101.616 92.2439 99.1441 92.1668 96.901C92.2735 96.7762 94.1499 97.7002 94.5353 96.901L94.5382 96.898ZM99.5152 99.6343C99.4856 99.6046 98.8097 99.2838 98.6941 99.4204C99.0054 99.9879 99.1595 100.145 99.7286 100.457C99.865 100.341 99.5449 99.664 99.5152 99.6343ZM93.0976 111.495C92.3358 112.823 96.5836 114.769 97.375 111.477C98.5963 106.385 94.7783 110.232 93.0976 111.495ZM92.9761 113.583C91.1115 113.863 90.5632 118.034 92.9079 118.022C95.2912 118.01 95.6617 113.179 92.9761 113.583ZM39.658 123.299C40.0492 122.342 40.2982 120.114 39.7202 119.312C38.6205 117.79 37.6986 121.189 37.1709 121.846C36.7115 122.419 35.7985 122.509 35.8489 123.34L39.658 123.302V123.299ZM48.8886 119.481L44.051 121.555C43.2299 123.115 44.8158 122.122 45.7762 122.125C46.4817 122.128 47.4243 122.681 48.0053 122.315C48.4233 122.054 49.1258 119.731 48.8886 119.478V119.481Z" fill="#F5BE70"/>
<path d="M64.2969 68.376C65.3581 67.3896 65.6812 65.8744 66.4252 64.7156C66.9795 63.8511 67.8925 63.0459 68.3964 62.2348C72.0543 56.3165 74.8496 50.4872 75.564 43.4191C76.3229 43.3003 76.0264 43.4815 76.1835 43.838C76.7023 45.0027 77.0076 46.6813 77.5738 47.7984C77.6775 48.0034 77.6034 48.3748 78.0747 48.1668C79.3168 47.6291 82.3877 44.0519 82.3907 42.6823C82.3907 42.3049 81.9935 41.4404 82.0824 41.3394C82.2129 41.1967 82.8324 41.277 82.7405 41.7256L84.0033 44.0074C88.0287 41.3988 91.9712 39.1229 96.5332 37.5483C99.287 36.5975 102.625 35.2933 105.5 35.9914C104.098 38.8437 101.303 40.038 99.1328 41.9365C97.873 43.0418 96.0441 44.8185 94.974 46.0871C94.4523 46.7021 91.9089 49.9435 92.4603 50.5467L113.504 44.6075C110.602 48.2916 107.572 52.056 104.323 55.4578C100.834 59.1093 95.3801 62.9954 92.4662 66.7478C90.3231 69.508 92.4188 69.7546 94.974 69.5555C97.6833 69.3446 107.99 64.9117 110.851 63.4827C117.962 59.9293 123.878 54.519 129.511 49.0582C127.195 55.9837 122.681 65.2356 117.357 70.1527C112.742 74.4161 106.908 77.0039 100.757 78.1745C100.33 76.9564 98.2969 76.1334 97.1942 75.6551C93.6964 74.1369 89.5494 73.2129 85.936 71.9323C88.1503 66.9083 83.9677 68.9048 83.6061 68.6434C82.2959 67.7105 82.201 63.0429 82.5241 61.5336C83.1258 58.7349 88.7846 50.2317 90.824 47.8668C92.5463 45.8672 94.8198 44.0074 96.6073 42.2247C97.461 41.372 98.0094 41.0066 99.0765 40.3916C99.6427 40.0648 102.118 39.0784 102.239 38.9536C102.96 38.2138 101.113 38.3742 100.941 38.398C91.3546 39.6399 78.3593 54.6378 73.7855 62.728L73.3379 61.5366C72.4249 61.4059 70.2372 63.4767 69.8045 64.2373C69.5614 64.6651 68.4142 68.7058 68.4202 69.1277C68.432 69.8169 69.2828 69.5258 69.3509 70.2953C69.4191 71.0648 68.4972 75.0787 66.9647 74.3151C66.8995 72.4285 65.198 70.0933 64.2969 68.373V68.376ZM97.4225 53.5771C96.4917 53.7673 91.6925 56.159 92.5878 57.4009C93.2399 58.3041 96.9749 58.5596 97.959 57.9951C100.274 56.6611 100.04 53.0483 97.4225 53.5801V53.5771Z" fill="#81C464"/>
<g filter="url(#filter0_d_628_5012)">
<path d="M104.316 104.623C107.035 111.474 103.964 120.604 99.5646 126.154C90.6126 137.453 78.5036 136.579 65.3334 135.822C64.4293 135.768 61.2753 136.077 60.884 135.528C60.5431 135.049 60.8781 133.831 59.6894 133.724C58.394 133.608 58.5007 135.284 57.3269 135.516C55.4535 135.884 48.8373 135.679 46.6496 135.534C42.3189 135.242 38.246 134.018 34.6562 131.659C39.5265 129.075 44.8474 127.669 50.3757 128.828C53.3163 129.443 56.7222 131.665 59.4048 131.959C65.0191 132.572 70.5001 130.908 75.8565 129.577C75.7379 129.03 74.902 129.271 74.3832 128.831C71.6769 126.537 78.1241 121.793 76.4523 128.985C81.1892 127.518 85.9231 125.067 90.0642 122.28C95.7941 118.417 102.206 111.1 101.038 103.607C100.94 102.98 99.6535 100.974 99.8729 100.766C100.629 100.047 103.003 103.63 103.436 104.171C103.543 104.305 104.186 105.226 104.316 104.626V104.623Z" fill="#E08A50"/>
</g>
<path d="M94.5336 96.8982C94.1482 97.7004 92.2718 96.7734 92.1651 96.8982C92.2422 99.1384 91.8983 101.613 91.1187 103.726C90.185 106.257 88.1456 108.126 87.1229 110.565C85.8068 110.806 85.6645 112.065 85.3444 112.348C80.6519 116.463 74.6286 119.529 68.5133 121.178C65.7743 121.917 59.8932 123.293 57.4952 121.692C56.4191 120.973 55.0674 118.447 54.8807 117.176C54.7206 116.088 55.2453 115.259 54.8125 114.427C62.8782 108.052 71.6258 100.401 82.0807 97.9351C85.2021 97.1983 87.7988 97.733 90.8431 97.4924C91.7531 97.4211 91.6049 97.638 91.5693 96.6011C92.586 96.7021 93.4753 96.6456 94.5336 96.8982ZM81.1944 101.355C79.6797 101.212 77.8774 100.775 76.3656 101.12C75.9032 101.224 73.6296 102.986 73.5259 103.345C73.2947 104.121 74.8094 105.906 75.4586 106.361C76.5998 107.16 78.3546 107.119 79.7123 107C81.5323 106.842 85.8216 105.672 87.2711 104.623C92.5386 100.802 83.6221 97.1893 81.1944 101.355ZM70.5912 106.765C70.3778 107.136 70.4282 108.967 70.8047 109.249C71.1811 109.531 73.185 108.753 73.3688 108.494C73.6089 108.153 73.2028 105.309 71.7266 105.96C71.6643 105.987 70.6268 106.706 70.5942 106.765H70.5912Z" fill="#FCDA95"/>
<path d="M96.608 42.2305C94.8206 44.0131 92.547 45.873 90.8248 47.8725C88.7853 50.2375 83.1266 58.7406 82.5248 61.5394C82.2017 63.0487 82.2966 67.7162 83.6068 68.6491C83.9714 68.9076 88.154 66.914 85.9367 71.9381C89.5501 73.2186 93.6971 74.1426 97.1949 75.6608C98.2976 76.1392 100.331 76.9621 100.758 78.1803C90.7418 80.0847 81.4251 78.3377 71.6875 75.9223C72.7546 65.2681 80.7226 55.0981 88.4504 48.1637C90.8218 46.0364 93.792 43.6566 96.611 42.2305H96.608Z" fill="#65B252"/>
<path d="M128.328 6.87523C127.782 6.80096 127.047 6.98219 126.549 6.87523C115.478 4.51027 110.326 3.56845 99.0528 6.79799C96.2575 7.60017 92.7774 8.73512 90.6817 10.7376C84.8184 11.62 76.4088 16.8728 73.7854 22.3247C73.6609 21.7305 73.0325 22.6337 72.8961 22.7704C69.7955 25.8752 68.0229 28.4629 65.7819 32.1292C62.044 38.2496 61.297 40.9325 60.7427 48.1729C60.0579 48.1551 59.9453 48.5503 59.7022 49.0613C59.4769 49.5337 58.9878 51.5778 58.9641 52.0353C57.6806 42.8815 59.9571 34.1555 64.5458 26.2852C68.6424 19.2556 77.6063 11.623 84.851 8.01315C93.2309 3.83584 109.137 1.90762 118.395 3.01583C122.687 3.52982 125.254 3.69026 128.328 6.87523Z" fill="#EEF6C2"/>
<path d="M60.1503 71.6443C59.6968 74.8352 59.0387 77.9459 57.6426 80.8665C56.9193 82.3817 54.9718 84.5476 55.1111 86.2025C53.3058 86.6422 54.1595 85.0913 53.0361 84.4199C51.969 81.0982 50.2586 78.4896 47.7004 76.1009C48.2073 74.758 49.5916 73.8875 50.3208 72.6367C50.7477 71.9058 51.2901 70.4143 51.554 69.5646C54.0973 61.2991 52.0757 56.2602 45.9219 50.5498L49.1855 52.478C54.699 57.5793 58.2147 64.4395 60.1503 71.6443Z" fill="#65B252"/>
<path d="M21.9122 82.934C26.5423 85.2188 34.7652 86.4934 38.2126 81.597C39.4487 79.8412 37.6435 77.7168 36.8935 75.7886C36.692 75.2717 35.4144 71.8163 35.5478 71.644L38.8025 73.4237L37.6198 70.1585C40.5781 69.903 43.2548 72.9958 46.0323 70.717C47.6538 69.386 45.9997 64.2995 47.5797 63.94C49.5657 63.4884 50.1141 68.2837 49.7703 69.5643H51.5518C51.2909 70.414 50.7485 71.9055 50.3187 72.6363C49.5865 73.8871 48.2022 74.7547 47.6983 76.1006C47.6301 76.0382 47.2032 76.0323 46.9572 75.8154C44.5384 73.6881 42.2855 72.2144 39.2472 71.0557C40.089 72.5531 41.6749 73.5039 42.9554 74.6151C43.1096 75.9936 44.4702 76.7928 44.9385 78.1239C45.979 81.0623 45.2112 82.9519 42.8043 84.7167C40.6581 86.2913 34.1664 87.9076 31.5075 87.9551C30.5204 87.9729 29.0738 87.1737 28.1312 87.9848C27.9652 87.8838 27.5413 87.8482 27.2419 87.6877C27.0967 87.3193 26.9603 87.2718 26.6491 87.0935C24.1265 85.6525 23.6818 85.1178 21.9062 82.934H21.9122Z" fill="#81C464"/>
<path d="M53.3331 102.543C51.5101 102.582 49.7908 103.179 47.9974 103.435C47.3394 103.53 44.1558 103.491 43.8475 103.732C43.6696 104.555 44.6211 104.421 45.1873 104.914C46.1448 105.749 46.1744 106.94 45.7001 108.111C45.0569 109.698 39.7716 113.29 38.5148 115.019C38.1768 113.685 36.419 113.848 35.5505 115.019C34.5901 116.311 35.3608 116.317 35.2156 116.926C35.1 117.404 31.6229 118.082 30.947 118.011C29.7406 117.883 29.8087 116.932 28.7357 116.801C28.7149 120.194 28.5341 123.641 29.622 126.9C22.9465 118.174 25.6677 111.017 34.5723 105.568C40.8061 101.753 46.3404 100.909 53.3361 102.537L53.3331 102.543ZM30.8907 109.163C29.9718 110.378 29.6368 114.154 31.9964 113.72C33.7008 113.408 38.3932 110.277 39.075 108.604C41.2686 103.215 32.4973 107.041 30.8907 109.163Z" fill="#FCDA95"/>
<path d="M42.9619 74.6152C45.6386 76.9386 49.5455 80.4207 50.8202 83.8225C51.001 84.3039 51.7213 87.8335 51.5612 87.985C51.5079 88.0355 50.5801 87.9077 50.0821 88.1365C49.7441 88.291 49.4447 88.8823 48.9912 89.1259C43.5577 92.0197 37.4425 91.681 31.6977 90.0647L31.1049 89.7676C31.016 89.7379 30.8974 89.7973 30.8085 89.7676C29.9133 89.2923 28.941 88.4693 28.1406 87.985C29.0862 87.1739 30.5298 87.9731 31.5169 87.9553C34.1729 87.9078 40.6676 86.2915 42.8137 84.7168C45.2177 82.952 45.9855 81.0624 44.948 78.1241C44.4767 76.796 43.119 75.9938 42.9649 74.6152H42.9619Z" fill="#65B252"/>
<path d="M91.5686 96.6012C91.6042 97.6411 91.7524 97.4212 90.8423 97.4925C87.798 97.7332 85.2014 97.1984 82.08 97.9352C71.6251 100.401 62.8775 108.052 54.8118 114.428C53.0569 115.815 50.9405 117.482 49.1797 115.022C58.363 103.764 76.9755 95.1603 91.5686 96.6012Z" fill="#FCFCEF"/>
<path d="M66.9688 74.3181C68.5013 75.0817 69.4232 71.0589 69.355 70.2983C69.2869 69.5377 68.4361 69.817 68.4243 69.1307C68.4183 68.7088 69.5625 64.6681 69.8086 64.2403C70.2413 63.4827 72.429 61.4089 73.342 61.5396L73.7896 62.731C70.6563 68.269 70.6148 70.9311 68.9638 76.7603C66.8147 84.3484 64.3514 90.8342 63.4206 98.8323C63.3494 99.4503 63.5747 101.01 63.3761 101.313C63.2872 101.45 60.5008 102.537 60.3407 102.505C60.0028 102.433 59.5819 101.667 59.2647 101.355C58.9505 100.264 58.6719 98.042 59.2499 97.1032C59.5107 96.6783 60.6698 96.503 60.154 95.1155C60.6905 95.0829 60.9899 94.9254 61.3397 94.5213C62.1282 93.6062 61.7665 92.7595 62.0037 91.7701C62.3535 90.3232 62.7151 88.8199 63.1182 87.3908C63.7793 87.3819 63.9304 87.0669 64.2328 86.5767C65.1458 85.1001 66.7346 80.8188 67.1348 79.0867C67.4431 77.7438 67.4253 77.8061 66.0825 77.8834C66.37 76.8019 66.8888 75.7115 66.9718 74.6152C66.9777 74.5172 66.9747 74.4162 66.9718 74.3181H66.9688Z" fill="#65B252"/>
<path d="M37.3265 44.9048V46.6874C33.6626 45.9417 29.9336 45.811 26.2105 45.499L26.9515 46.9845C25.3835 46.7944 23.513 47.1361 21.9123 46.9845L23.9873 44.6107C21.7048 44.575 21.1357 44.2007 19.5409 45.7961C16.2565 49.0762 14.7418 57.9329 15.3909 62.4341C13.2152 63.2214 13.7398 64.3028 13.5916 66.1211C13.5739 66.3529 13.3189 66.543 13.316 66.5935C12.7142 60.4286 12.8031 54.3023 15.3405 48.5681C16.716 45.4545 17.8127 43.6065 21.5003 43.1549C26.8597 42.5012 32.2398 43.6094 37.3265 44.9048Z" fill="#EEF6C2"/>
<path d="M131.592 49.0641C131.002 48.5233 131.541 47.9261 131.592 47.2844L130.109 47.8756C133.761 35.7953 131.921 26.6385 131.295 14.5998C131.292 14.5255 131.609 13.8065 131.592 13.1143C132.694 14.8939 133.207 17.247 133.581 19.2911C135.374 29.1491 134.657 39.5507 131.592 49.0641Z" fill="#D5ED97"/>
<path d="M15.9828 63.622C15.8316 63.9132 15.7012 65.265 15.6864 65.7018C15.6389 67.11 15.9028 69.0947 16.8721 70.1583C16.377 71.5429 17.041 74.2168 17.4797 75.6399C17.8443 76.8195 18.4253 77.488 18.9471 78.4773C19.9608 80.3996 20.5507 81.2612 21.9113 82.9339C23.6869 85.1176 24.1315 85.6524 26.6541 87.0934C26.7638 87.4083 26.9713 87.539 27.247 87.6876C27.3003 87.8243 27.2114 88.1006 27.247 88.2818C20.2691 84.7908 13.1608 74.6417 13.315 66.5931C13.315 66.5426 13.5699 66.3524 13.5906 66.1207C13.7389 64.2994 13.2171 63.2209 15.3899 62.4336C15.4226 62.6653 15.8198 63.3546 15.9828 63.622Z" fill="#D5ED97"/>
<path d="M60.149 71.6443C58.2133 64.4394 54.7007 57.5793 49.1842 52.478L45.9205 50.5498C45.6508 50.3002 45.1735 49.7654 45.0312 49.6584C45.8672 49.5455 47.0914 49.9793 47.6991 49.3613C52.9725 53.0752 57.0039 59.5045 59.9029 65.206C61.1657 67.6898 60.5314 68.9703 60.149 71.6443Z" fill="#ACDC6F"/>
<path d="M53.3327 102.543C55.0401 102.941 56.0806 103.25 57.9243 103.443C58.2297 103.476 58.9292 103.253 58.6684 103.877C58.4846 104.317 54.3257 106.937 53.4928 107.603C52.6598 108.268 51.1125 109.572 50.3714 110.268C50.2617 109.112 50.9079 108.105 50.5967 106.925C50.3062 105.817 48.4387 104.626 48 103.434C49.7934 103.179 51.5126 102.582 53.3357 102.543H53.3327Z" fill="#E08A50"/>
<path d="M130.106 47.8754L131.588 47.2842C131.537 47.9289 130.998 48.5231 131.588 49.0638C129.086 56.8302 124.524 63.9162 118.551 69.4215C118.186 69.7573 117.94 70.1643 117.359 70.1584C122.683 65.2413 127.198 55.9894 129.513 49.0638C129.631 48.7073 129.996 48.2349 130.106 47.8754Z" fill="#ACDC6F"/>
<path d="M53.0391 84.4194C54.1625 85.0909 53.3088 86.6418 55.114 86.2021C55.1793 86.9864 58.0161 92.5572 58.6119 93.5406C58.9972 94.1734 60.1147 95.0142 60.1533 95.1152C60.6691 96.5027 59.51 96.678 59.2492 97.1029C58.6712 98.0417 58.9498 100.267 59.264 101.354C57.0705 99.1797 56.7207 95.2727 55.7158 92.2838C54.8265 89.6485 53.8957 87.0785 53.0391 84.4194Z" fill="#81C464"/>
<path d="M47.703 49.3614C47.0954 49.9794 45.8711 49.5456 45.0352 49.6585C43.1381 48.2116 39.9515 47.1866 37.6246 46.6874C37.5297 46.6666 37.423 46.7082 37.3281 46.6874V44.9048C41.4158 45.9447 44.1726 46.8746 47.703 49.3614Z" fill="#D5ED97"/>
<path d="M60.7473 48.1729C60.6702 49.1742 60.4716 50.1398 60.4508 51.144C60.3738 55.1163 60.7295 61.1951 62.2294 64.8109C61.7077 64.2315 61.2838 63.3551 60.9903 62.6361C60.0507 60.3394 58.8531 54.4656 58.9687 52.0353C58.9895 51.5778 59.4815 49.5337 59.7068 49.0613C59.9499 48.5503 60.0655 48.1551 60.7473 48.1729Z" fill="#D5ED97"/>
<path d="M128.325 6.87489C129.997 8.60999 131.524 10.5055 131.586 13.1141C131.604 13.8064 131.287 14.5254 131.29 14.5996C130.228 12.3624 129.295 9.13884 126.843 8.06331C126.882 7.77512 126.574 7.21953 126.547 6.87489C127.045 6.98185 127.78 6.80061 128.325 6.87489Z" fill="#ACDC6F"/>
<path d="M66.0788 77.8834C65.225 81.0981 64.0097 84.1969 63.1145 87.3908C62.7143 88.8199 62.3497 90.3232 61.9999 91.7701C61.7628 92.7565 62.1215 93.6062 61.3359 94.5213C61.908 88.1009 64.1312 81.8943 66.2951 75.872C66.4582 75.4144 66.5115 74.9064 66.968 74.6152C66.885 75.7116 66.3663 76.8019 66.0788 77.8834Z" fill="#9ED46A"/>
<path d="M28.1401 87.9851C28.9405 88.4694 29.9128 89.2924 30.808 89.7677C29.2013 89.2389 28.7271 89.019 27.2509 88.2822C27.2153 88.101 27.3042 87.8247 27.2509 87.688C27.5502 87.8484 27.9741 87.8841 28.1401 87.9851Z" fill="#ACDC6F"/>
<path d="M31.6944 90.0647C31.3595 89.9696 31.1757 89.7913 31.1016 89.7676L31.6944 90.0647Z" fill="#ACDC6F"/>
<path d="M117.068 133.739C117.104 133.781 116.997 134.06 117.16 134.244C117.287 134.39 117.622 134.295 117.661 134.334C117.699 134.372 117.483 135.174 118.103 134.925C119.605 134.319 120.127 130.932 122.404 133.145C122.997 134.559 123.168 135.397 123 137.01C121.55 136.749 114.486 137.409 113.79 136.88C113.44 136.615 113.638 135.813 113.217 135.522C113.244 135.433 113.194 135.32 113.217 135.225C113.484 134.206 113.517 133.288 113.81 132.254C115.402 131.107 116.016 132.488 117.071 133.739H117.068Z" fill="#65B252"/>
<path d="M126.553 6.87486C126.58 7.21951 126.888 7.77509 126.85 8.06329C126.577 10.1341 125.071 11.3404 124.837 12.1366C124.55 13.1052 124.876 14.7571 124.745 15.9069C124.434 18.6492 122.332 24.2645 119.009 24.1189C109.124 23.6821 104.375 25.1112 95.2775 28.5606C88.4034 31.1662 76.241 37.6966 69.0557 34.9484C68.5814 34.7672 67.5943 34.2591 67.2712 33.9145C66.7999 33.4094 66.6457 31.9714 65.7891 32.1318C68.03 28.4655 69.8027 25.8778 72.9033 22.773C73.0396 22.6363 73.6681 21.7331 73.7926 22.3273C72.758 24.4754 72.1178 27.4762 74.5722 28.825C76.4159 29.8382 78.0522 29.3717 79.8308 28.5309C82.6112 27.2177 92.1976 18.8839 93.7124 16.2991C94.4475 15.0453 94.8951 13.5835 94.0711 12.2495C93.5108 11.3404 91.7145 10.5857 90.6859 10.7402C92.7816 8.73772 96.2616 7.5998 99.0569 6.80059C110.33 3.57105 115.482 4.51287 126.553 6.87783V6.87486ZM101.882 14.3649C99.3 14.5461 95.7814 17.3419 99.0095 19.178C102.762 21.3112 105.661 14.1005 101.882 14.3649Z" fill="#C3EA72"/>
<path d="M65.781 32.1291C66.6376 31.9687 66.7918 33.4067 67.2631 33.9118C66.4094 34.2089 66.5369 36.0628 66.7266 36.6808C67.106 37.9138 69.8894 37.9672 70.2274 40.8937C70.7076 45.0918 67.5921 46.2298 64.7524 48.4789C63.4362 49.5217 62.458 51.4618 60.4453 51.1439C60.4661 50.1397 60.6647 49.1741 60.7417 48.1728C61.2961 40.9324 62.043 38.2495 65.781 32.1291Z" fill="#ACDC6F"/>
<path d="M103.429 62.1339C103.002 61.504 105.684 59.0351 106.251 58.5805C107.119 57.8823 110.599 55.7134 111.518 55.9393C112.941 56.2869 112.099 58.0487 111.56 58.8509C110.063 61.0822 106.019 62.9123 103.429 62.1339Z" fill="#81C464"/>
<path d="M93.0988 111.495C94.7795 110.232 98.5975 106.385 97.3762 111.477C96.5877 114.769 92.337 112.82 93.0988 111.495Z" fill="#E08A50"/>
<path d="M38.5111 115.022C38.9083 116.596 38.4044 120.093 36.1368 118.739C34.9125 118.008 36.3235 116.056 35.5469 115.022C36.4154 113.851 38.1732 113.688 38.5111 115.022Z" fill="#E08A50"/>
<path d="M92.9725 113.584C95.6581 113.18 95.2876 118.007 92.9043 118.022C90.5596 118.034 91.108 113.863 92.9725 113.584Z" fill="#E08A50"/>
<path d="M39.6548 123.299L35.8458 123.338C35.7954 122.506 36.7084 122.417 37.1678 121.843C37.6925 121.187 38.6173 117.788 39.7171 119.309C40.2981 120.111 40.0461 122.339 39.6548 123.296V123.299Z" fill="#E08A50"/>
<path d="M85.3438 112.348C85.6639 112.065 85.8062 110.806 87.1223 110.565C91.2693 109.807 87.3594 116.543 85.3438 112.348Z" fill="#E08A50"/>
<path d="M48.886 119.481C49.1231 119.733 48.4206 122.054 48.0026 122.318C47.4246 122.684 46.479 122.131 45.7735 122.128C44.816 122.122 43.2272 123.118 44.0483 121.558L48.886 119.484V119.481Z" fill="#E08A50"/>
<path d="M99.5164 99.6344C99.5461 99.6641 99.8662 100.341 99.7298 100.457C99.1637 100.145 99.0066 99.9909 98.6953 99.4204C98.8109 99.2838 99.4868 99.6047 99.5164 99.6344Z" fill="#E08A50"/>
<path d="M97.4298 53.5769C100.047 53.0451 100.281 56.6609 97.9663 57.9919C96.9822 58.5594 93.2472 58.3039 92.5951 57.3977C91.6999 56.1558 96.499 53.7641 97.4298 53.5739V53.5769Z" fill="#65B252"/>
<path d="M81.2001 101.355C81.1794 102.151 82.1487 102.469 82.3295 103.051C82.9283 104.991 80.717 105.797 79.718 107C78.3604 107.119 76.6026 107.163 75.4643 106.361C74.8151 105.907 73.3004 104.118 73.5316 103.345C73.6383 102.986 75.9119 101.227 76.3714 101.12C77.8831 100.776 79.6854 101.212 81.2001 101.355Z" fill="#FCFCEF"/>
<path d="M79.7109 107C80.7099 105.796 82.9212 104.988 82.3224 103.051C82.1446 102.472 81.1723 102.151 81.1931 101.355C83.6208 97.1862 92.5373 100.799 87.2698 104.623C85.8203 105.675 81.531 106.842 79.7109 107Z" fill="#FCFCEF"/>
<path d="M70.592 106.765C70.6276 106.706 71.6621 105.987 71.7244 105.96C73.2035 105.312 73.6096 108.153 73.3666 108.494C73.1828 108.753 71.1878 109.534 70.8025 109.249C70.4171 108.964 70.3756 107.136 70.5891 106.765H70.592Z" fill="#FCFCEF"/>
<path d="M73.7833 22.3247C76.4067 16.8728 84.8163 11.6199 90.6796 10.7375C91.7082 10.583 93.5045 11.3347 94.0648 12.2468C94.8859 13.5838 94.4412 15.0426 93.7061 16.2964C92.1913 18.8812 82.602 27.215 79.8245 28.5282C78.0459 29.369 76.4067 29.8355 74.5659 28.8224C72.1115 27.4735 72.7517 24.4727 73.7863 22.3247H73.7833Z" fill="#FCFCEF"/>
<path d="M45.0356 49.6581C45.1779 49.765 45.6552 50.2998 45.9249 50.5494C52.0787 56.2598 54.1003 61.2987 51.557 69.5642H49.7755C50.1193 68.2866 49.5709 63.4883 47.5849 63.9399C46.0079 64.2994 47.659 69.3889 46.0376 70.7169C43.26 72.9957 40.5804 69.9029 37.625 70.1584L38.8077 73.4236L35.553 71.6439C35.4196 71.8162 36.6972 75.2745 36.8987 75.7885C37.6457 77.7138 39.4539 79.8411 38.2178 81.5969C34.7704 86.4933 26.5476 85.2187 21.9174 82.9339C20.5568 81.2612 19.9669 80.3996 18.9531 78.4773C21.6269 74.5823 20.954 77.1493 22.6911 78.1475C24.1821 79.0032 25.8154 78.4565 26.2926 76.769C26.592 71.3676 28.7292 65.9187 28.1453 60.4995C27.7896 57.1719 25.7146 53.6363 23.9924 50.8465C24.5111 51.099 25.2136 51.2803 25.7709 51.1436C28.1957 53.1164 31.234 54.0998 34.3673 54.1147C29.1354 61.7948 43.0348 63.6488 44.1315 56.6222C44.3835 55.0089 44.3539 51.5863 43.3905 50.2701C42.1188 48.535 40.9242 49.0847 39.7029 48.4696C39.4599 48.3478 38.1823 46.9009 37.628 46.687C39.9549 47.1861 43.1415 48.2112 45.0386 49.6581H45.0356Z" fill="#9ED46A"/>
<path d="M27.2491 87.688C26.9734 87.5394 26.7659 87.4087 26.6562 87.0938C26.9675 87.272 27.1039 87.3196 27.2491 87.688Z" fill="#65B252"/>
<path d="M30.8893 109.163C32.496 107.041 41.2672 103.218 39.0737 108.604C38.3919 110.274 33.6995 113.405 31.995 113.72C29.6355 114.154 29.9704 110.378 30.8893 109.163Z" fill="#FCFCEF"/>
<path d="M66.0814 77.8834C67.4213 77.8032 67.442 77.7438 67.1338 79.0867C66.7336 80.8218 65.1447 85.1001 64.2317 86.5767C63.9294 87.0669 63.7782 87.3819 63.1172 87.3908C64.0124 84.1969 65.2277 81.0981 66.0814 77.8834Z" fill="#81C464"/>
<path d="M21.6146 46.9843C21.5553 48.4669 22.6846 50.2139 23.986 50.8467C25.7082 53.6365 27.7802 57.1721 28.1389 60.4997C28.7199 65.9189 26.5856 71.3708 26.2862 76.7692C25.809 78.4538 24.1757 79.0034 22.6846 78.1478C20.9476 77.1495 21.6205 74.5825 18.9467 78.4775C18.425 77.4882 17.844 76.8167 17.4794 75.6402C17.0377 74.217 16.3767 71.5431 16.8717 70.1586C17.7581 71.1301 20.2569 72.0214 21.1551 70.7379C22.1926 69.2524 21.3656 65.6871 20.4288 64.2165C19.4921 62.7458 16.8569 61.9406 15.9825 63.6222C15.8194 63.3549 15.4222 62.6656 15.3896 62.4338C14.7404 57.9327 16.2552 49.0759 19.5396 45.7959C20.1206 46.3871 20.7727 46.8417 21.6146 46.9843ZM20.6541 72.6067C20.1057 72.066 18.7511 71.8996 18.7363 73.0316C18.7185 74.3507 20.3132 74.2883 20.4348 75.5065C20.832 75.5065 20.995 74.0655 20.995 73.8367C20.995 73.4475 20.9328 72.886 20.6541 72.6097V72.6067Z" fill="#C3EA72"/>
<path d="M37.3262 46.6874C37.4211 46.7082 37.5278 46.6666 37.6227 46.6874C38.177 46.9014 39.4546 48.3483 39.6976 48.4701C39.7154 52.8851 38.6987 54.1359 34.362 54.1151C31.2288 54.1002 28.1904 53.1168 25.7656 51.144C25.8753 51.1173 27.5175 50.1071 27.6954 49.9586C28.967 48.8831 28.6973 47.1955 26.9513 46.9846L26.2103 45.499C29.9304 45.814 33.6624 45.9417 37.3262 46.6874ZM34.9163 49.0286C36.1257 47.0856 29.5154 45.8169 29.0708 47.1747C28.3327 49.4268 30.0045 50.5201 32.0706 50.1814C32.4263 50.122 34.8363 49.1594 34.9163 49.0286Z" fill="#C3EA72"/>
<path d="M26.9473 46.9841C28.6932 47.195 28.96 48.8796 27.6913 49.9581C27.5134 50.1067 25.8712 51.1168 25.7616 51.1436C25.2043 51.2802 24.5018 51.099 23.983 50.8465C22.6817 50.2136 21.5523 48.4666 21.6116 46.9841C21.7065 46.9989 21.8102 46.9752 21.908 46.9841C23.5087 47.1356 25.3792 46.7939 26.9473 46.9841Z" fill="#FCFCEF"/>
<path d="M19.5391 45.7959C21.1338 44.2005 21.703 44.5748 23.9854 44.6105L21.9105 46.9843C21.8126 46.9754 21.7089 46.9992 21.614 46.9843C20.7722 46.8417 20.1201 46.3872 19.5391 45.7959Z" fill="#D5ED97"/>
<path d="M20.4278 64.2165C21.3645 65.6871 22.1915 69.2524 21.154 70.7379C20.2558 72.0214 17.757 71.1301 16.8706 70.1586C15.9013 69.0949 15.6375 67.1103 15.6849 65.702C17.3271 65.3366 18.5958 64.056 20.4278 64.2165Z" fill="#FCFCEF"/>
<path d="M20.4303 64.2163C18.5984 64.0558 17.3297 65.3363 15.6875 65.7018C15.7023 65.265 15.8327 63.9132 15.9839 63.622C16.8584 61.9404 19.4491 62.6743 20.4303 64.2163Z" fill="#EEF6C2"/>
<path d="M101.877 14.365C105.657 14.1006 102.758 21.3114 99.0048 19.1781C95.7767 17.342 99.2953 14.5463 101.877 14.365Z" fill="#FCFCEF"/>
<path d="M34.3606 54.1147C38.6973 54.1355 39.7141 52.8847 39.6963 48.4697C40.9176 49.0818 42.1122 48.5351 43.3838 50.2702C44.3472 51.5864 44.3768 55.009 44.1249 56.6223C43.0281 63.6489 29.1287 61.7949 34.3606 54.1147Z" fill="#ACDC6F"/>
<path d="M20.6524 72.6069C20.931 72.8803 20.9933 73.4448 20.9933 73.834C20.9933 74.0628 20.8273 75.5067 20.433 75.5037C20.3115 74.2856 18.7167 74.3509 18.7345 73.0288C18.7523 71.8969 20.107 72.0662 20.6524 72.604V72.6069Z" fill="#FCFCEF"/>
<path d="M34.9137 49.0282C34.8337 49.159 32.4238 50.1216 32.068 50.181C30.002 50.5197 28.3301 49.4234 29.0682 47.1743C29.5128 45.8195 36.1231 47.0852 34.9137 49.0282Z" fill="#EEF1F2"/>
</g>
<defs>
<filter id="filter0_d_628_5012" x="34.6562" y="100.671" width="78.6875" height="45.5488" filterUnits="userSpaceOnUse" color-interpolation-filters="sRGB">
<feFlood flood-opacity="0" result="BackgroundImageFix"/>
<feColorMatrix in="SourceAlpha" type="matrix" values="0 0 0 0 0 0 0 0 0 0 0 0 0 0 0 0 0 0 127 0" result="hardAlpha"/>
<feOffset dx="4" dy="6"/>
<feGaussianBlur stdDeviation="2"/>
<feComposite in2="hardAlpha" operator="out"/>
<feColorMatrix type="matrix" values="0 0 0 0 0 0 0 0 0 0 0 0 0 0 0 0 0 0 0.25 0"/>
<feBlend mode="normal" in2="BackgroundImageFix" result="effect1_dropShadow_628_5012"/>
<feBlend mode="normal" in="SourceGraphic" in2="effect1_dropShadow_628_5012" result="shape"/>
</filter>
<clipPath id="clip0_628_5012">
<rect width="139" height="143" fill="white"/>
</clipPath>
</defs>
</svg>
